# xmcd
#
# Track frame offsets:
#	150
#	9757
#	20716
#	31459
#	41124
#	51933
#	62582
#	74469
#	87228
#	97259
#	110675
#	119767
#	133188
#	145326
#	155760
#	165584
#	177190
#	187896
#	199145
#	208932
#	220725
#	230887
#	244246
#	253986
#
# Disc length: 3536 seconds
#
# Revision: 1
# Processed by: cddbd v1.5.2PL0 Copyright (c) Steve Scherf et al.
# Submitted via: audiograbber 1.83.01
#
DISCID=770dce18
DTITLE=Sam Cooke - The Wonderful World Of Sam Cooke - Twistin' The Night Away
DYEAR=2013
DGENRE=Soul
TTITLE0=Sam Cooke - (What A) Wonderful World
TTITLE1=Sam Cooke - Desire Me
TTITLE2=Sam Cooke - Summertime
TTITLE3=Sam Cooke - Almost In Your Arms
TTITLE4=Sam Cooke - That's Heaven To Me
TTITLE5=Sam Cooke - No One (Can Ever Take Your Place)
TTITLE6=Sam Cooke - With You
TTITLE7=Sam Cooke - Blue Moon
TTITLE8=Sam Cooke - Stealing Kisses
TTITLE9=Sam Cooke - You Were Made For Me
TTITLE10=Sam Cooke - There I've Said It Again
TTITLE11=Sam Cooke - I Thank God
TTITLE12=Sam Cooke - Twistin' The Night Away
TTITLE13=Sam Cooke - Sugar Dumpling
TTITLE14=Sam Cooke with Dinah - Twistin' In The Kitchen
TTITLE15=Sam Cooke - Somebody's Gonna Miss Me
TTITLE16=Sam Cooke - A Whole Lotta Woman
TTITLE17=Sam Cooke - The Twist
TTITLE18=Sam Cooke - Twistin' In The Old Town Tonight
TTITLE19=Sam Cooke - Movin' And A'groovin'
TTITLE20=Sam Cooke - Camptown Twist
TTITLE21=Sam Cooke - Somebody Have Mercy
TTITLE22=Sam Cooke - Soothe Me
TTITLE23=Sam Cooke - That's It, I Quit, I'm Movin' On
EXTD=
EXTT0=
EXTT1=
EXTT2=
EXTT3=
EXTT4=
EXTT5=
EXTT6=
EXTT7=
EXTT8=
EXTT9=
EXTT10=
EXTT11=
EXTT12=
EXTT13=
EXTT14=
EXTT15=
EXTT16=
EXTT17=
EXTT18=
EXTT19=
EXTT20=
EXTT21=
EXTT22=
EXTT23=
PLAYORDER=
